<svg xmlns="http://www.w3.org/2000/svg" viewBox="0 0 24 24" style="enable-background:new 0 0 24 24;" xml:space="preserve">
  <style type="text/css">path{fill-rule:evenodd;clip-rule:evenodd;}</style>
  <g>
    <path d="M5.1,4h13.8C19.5,4,20,4.5,20,5.2v13.8c0,0.6-0.5,1.2-1.2,1.2H5.1c-0.6,0-1.2-0.5-1.2-1.2V5.1
      C4,4.5,4.4,4,5.1,4z M15.7,16.4h-2.1l-3.1-5.5v5.5H8.3V7.6h2.1l3.1,5.5V7.6h2.1V16.4z"/>
    <path d="M17.5,3.3L17.5,3.3L17.6,2c-0.1-0.3-0.3-0.5-0.5-0.5h-1.7c-0.3,0-0.5,0.2-0.5,0.5v1.3H17.5z"/>
    <path d="M9.2,3.3V2c0-0.3-0.2-0.5-0.5-0.5H7C6.8,1.5,6.4,1.7,6.4,2v1.3H9.2z"/>
    <path d="M13.4,3.3V2c0-0.3-0.2-0.5-0.5-0.5h-1.7c-0.3,0-0.5,0.2-0.5,0.5v1.3H13.4z"/>
    <path d="M6.8,20.7c-0.1,0-0.2,0-0.2,0V22c-0.1,0.3,0.2,0.5,0.4,0.5h1.7c0.3,0,0.5-0.2,0.5-0.5v-1.3H6.8L6.8,20.7z"/>
    <path d="M10.7,20.7V22c0,0.3,0.2,0.5,0.5,0.5h1.7c0.3,0,0.5-0.2,0.5-0.5v-1.3H10.7z"/>
    <path d="M22,14.8h-1.3v2.6H22c0.3,0,0.5-0.2,0.5-0.5v-1.7C22.5,15,22.3,14.8,22,14.8z"/>
    <path d="M14.8,20.7V22c0,0.3,0.2,0.5,0.5,0.5H17c0.3,0,0.5-0.2,0.5-0.5v-1.3H14.8z"/>
    <path d="M22,10.6h-1.3v2.6H22c0.3,0,0.5-0.2,0.5-0.5v-1.7C22.5,10.8,22.3,10.6,22,10.6z"/>
    <path d="M22,6.5h-1.3v0.2c0,0,0,0,0,0.1v2.4H22c0.3,0,0.5-0.2,0.5-0.5V7C22.5,6.7,22.3,6.5,22,6.5z"/>
    <path d="M3.3,14.8H2c-0.3,0-0.5,0.2-0.5,0.5V17c0,0.3,0.2,0.5,0.5,0.5h1.3V14.8z"/>
    <path d="M3.3,10.6H2c-0.3,0-0.5,0.2-0.5,0.5v1.7c0,0.3,0.2,0.5,0.5,0.5h1.3V10.6z"/>
    <path d="M3.3,6.5H2C1.7,6.5,1.5,6.7,1.5,7v1.7C1.5,9,1.7,9.2,2,9.2h1.3V6.5z"/>
  </g>
</svg>
