<svg xmlns="http://www.w3.org/2000/svg" viewBox="0 0 24 24" style="enable-background:new 0 0 24 24;" xml:space="preserve">
	<style type="text/css">path{fill-rule:evenodd;clip-rule:evenodd;}</style>
	<path d="M15.612,15.017v-0.91c0-0.275,0.103-0.547,0.31-0.816c0.206-0.269,0.456-0.513,0.75-0.732l0.901-0.648
		c0.294-0.219,0.544-0.45,0.751-0.694c0.206-0.244,0.31-0.488,0.31-0.732c0-0.219-0.073-0.413-0.22-0.582
		C18.265,9.734,18.048,9.65,17.76,9.65c-0.244,0-0.444,0.069-0.6,0.206c-0.157,0.138-0.235,0.344-0.235,0.619
		c0,0.119-0.058,0.224-0.174,0.314c-0.116,0.091-0.271,0.136-0.464,0.136c-0.369,0-0.553-0.219-0.553-0.657
		c0-0.513,0.2-0.929,0.6-1.248c0.4-0.319,0.873-0.478,1.417-0.478c0.569,0,1.062,0.174,1.478,0.521
		c0.416,0.347,0.624,0.809,0.624,1.384c0,0.375-0.101,0.727-0.305,1.056c-0.203,0.328-0.452,0.607-0.746,0.835
		c-0.294,0.228-0.586,0.439-0.877,0.633c-0.291,0.194-0.538,0.388-0.741,0.581c-0.203,0.194-0.305,0.379-0.305,0.554v0.225h2.608
		c0.1,0,0.189,0.052,0.267,0.155c0.078,0.103,0.117,0.227,0.117,0.371c0,0.144-0.039,0.271-0.117,0.38
		c-0.078,0.109-0.167,0.164-0.267,0.164h-3.34c-0.119,0-0.237-0.038-0.356-0.113C15.672,15.214,15.612,15.123,15.612,15.017
		M11.343,15.017V8.928c0-0.119,0.053-0.213,0.16-0.282c0.106-0.069,0.231-0.103,0.375-0.103h3.274c0.125,0,0.219,0.052,0.282,0.155
		c0.062,0.103,0.094,0.227,0.094,0.371c0,0.15-0.032,0.278-0.098,0.385c-0.066,0.106-0.158,0.16-0.277,0.16h-2.59v1.876h1.436
		c0.119,0,0.211,0.047,0.277,0.141c0.065,0.094,0.098,0.209,0.098,0.347c0,0.125-0.033,0.235-0.098,0.328
		c-0.066,0.094-0.158,0.141-0.277,0.141h-1.436v2.571c0,0.119-0.061,0.213-0.183,0.282c-0.122,0.069-0.264,0.103-0.427,0.103
		c-0.169,0-0.312-0.034-0.431-0.103C11.403,15.23,11.343,15.135,11.343,15.017z M5.93,13.309V8.918c0-0.125,0.059-0.219,0.178-0.282
		C6.227,8.574,6.37,8.543,6.539,8.543s0.313,0.031,0.432,0.094C7.09,8.699,7.149,8.793,7.149,8.918v4.391
		c0,0.719,0.344,1.079,1.031,1.079c0.688,0,1.032-0.36,1.032-1.079V8.918c0-0.125,0.06-0.219,0.179-0.282
		C9.51,8.574,9.654,8.543,9.823,8.543s0.313,0.031,0.432,0.094c0.119,0.062,0.178,0.156,0.178,0.282v4.391
		c0,0.738-0.205,1.281-0.614,1.628c-0.41,0.347-0.956,0.521-1.637,0.521c-0.681,0-1.227-0.172-1.637-0.516
		C6.135,14.597,5.93,14.053,5.93,13.309z M4.306,15.27c-0.119-0.125-0.178-0.275-0.178-0.451c0-0.175,0.061-0.325,0.183-0.45
		c0.122-0.125,0.274-0.188,0.455-0.188c0.169,0,0.316,0.063,0.441,0.188c0.125,0.125,0.187,0.275,0.187,0.45
		c0,0.169-0.062,0.318-0.187,0.446c-0.125,0.128-0.272,0.192-0.441,0.192C4.585,15.458,4.431,15.395,4.306,15.27z M4.4,2.5h15.2
		c1.045,0,1.9,0.855,1.9,1.9v15.2c0,1.045-0.855,1.9-1.9,1.9H4.4c-1.045,0-1.9-0.855-1.9-1.9V4.4C2.5,3.355,3.355,2.5,4.4,2.5z"/>
</svg>
