<svg xmlns="http://www.w3.org/2000/svg" viewBox="0 0 24 24" style="enable-background:new 0 0 24 24;" xml:space="preserve">
	<style type="text/css">path{fill-rule:evenodd;clip-rule:evenodd;}</style>
	<path d="M17.935,9.927l-3.862-3.862L11.952,8.2l3.848,3.855L17.935,9.927z M16.076,8.891l0.975,0.988l-0.975,0.974
		l-0.967-0.974L16.076,8.891z M14.121,6.949l0.988,0.975l-0.988,0.967l-0.974-0.967L14.121,6.949z M11.683,17.209l3.662-3.669
		l-4.885-4.885l-3.669,3.662c-0.622,0.629-1.009,1.493-1.009,2.446c0,1.907,1.548,3.455,3.455,3.455
		C10.19,18.218,11.053,17.831,11.683,17.209 M10.459,6.701l0.504,0.518L13.583,4.6c0.124-0.124,0.297-0.2,0.49-0.2
		c0.194,0,0.366,0.076,0.491,0.2l4.885,4.885v0.007C19.545,9.609,19.6,9.761,19.6,9.927c0,0.207-0.09,0.394-0.235,0.525l-2.577,2.584
		l0.511,0.504l-4.643,4.643c-0.877,0.877-2.087,1.416-3.42,1.416c-2.674,0-4.836-2.163-4.836-4.836c0-1.333,0.539-2.543,1.416-3.42
		L10.459,6.701z M9.236,14.073c-0.38,0-0.691,0.311-0.691,0.691c0,0.38,0.311,0.691,0.691,0.691c0.38,0,0.691-0.311,0.691-0.691
		C9.927,14.384,9.616,14.073,9.236,14.073 M9.236,12.691c1.147,0,2.073,0.925,2.073,2.073c0,1.147-0.926,2.072-2.073,2.072
		c-1.147,0-2.072-0.926-2.072-2.072C7.164,13.617,8.089,12.691,9.236,12.691 M4.4,2.5h15.2c1.045,0,1.9,0.855,1.9,1.9v15.2
		c0,1.045-0.855,1.9-1.9,1.9H4.4c-1.045,0-1.9-0.855-1.9-1.9V4.4C2.5,3.355,3.355,2.5,4.4,2.5z"/>
</svg>
